<?xml version="1.0" encoding="utf-8"?><svg xmlns="http://www.w3.org/2000/svg" xmlns:xlink="http://www.w3.org/1999/xlink"><symbol viewBox="0 0 24 24" id="account" xmlns="http://www.w3.org/2000/svg"><path d="M12 4a4 4 0 014 4 4 4 0 01-4 4 4 4 0 01-4-4 4 4 0 014-4m0 10c4.42 0 8 1.79 8 4v2H4v-2c0-2.21 3.58-4 8-4z"/></symbol><symbol viewBox="0 0 24 24" id="arrow" xmlns="http://www.w3.org/2000/svg"><path d="M20 11v2H8l5.5 5.5-1.42 1.42L4.16 12l7.92-7.92L13.5 5.5 8 11h12z"/></symbol><symbol viewBox="0 0 24 24" id="close" xmlns="http://www.w3.org/2000/svg"><path d="M19 6.41L17.59 5 12 10.59 6.41 5 5 6.41 10.59 12 5 17.59 6.41 19 12 13.41 17.59 19 19 17.59 13.41 12 19 6.41z"/></symbol><symbol viewBox="0 0 24 24" id="compass" xmlns="http://www.w3.org/2000/svg"><path d="M14.19 14.19L6 18l3.81-8.19L18 6m-6-4A10 10 0 002 12a10 10 0 0010 10 10 10 0 0010-10A10 10 0 0012 2m0 8.9a1.1 1.1 0 00-1.1 1.1 1.1 1.1 0 001.1 1.1 1.1 1.1 0 001.1-1.1 1.1 1.1 0 00-1.1-1.1z"/></symbol><symbol viewBox="0 0 24 24" id="home" xmlns="http://www.w3.org/2000/svg"><path d="M10 20v-6h4v6h5v-8h3L12 3 2 12h3v8h5z"/></symbol><symbol viewBox="0 0 24 24" id="magnify" xmlns="http://www.w3.org/2000/svg"><path d="M9.5 3A6.5 6.5 0 0116 9.5c0 1.61-.59 3.09-1.56 4.23l.27.27h.79l5 5-1.5 1.5-5-5v-.79l-.27-.27A6.516 6.516 0 019.5 16 6.5 6.5 0 013 9.5 6.5 6.5 0 019.5 3m0 2C7 5 5 7 5 9.5S7 14 9.5 14 14 12 14 9.5 12 5 9.5 5z"/></symbol><symbol viewBox="0 0 24 24" id="music-box-multiple" xmlns="http://www.w3.org/2000/svg"><path d="M4 6H2v14a2 2 0 002 2h14v-2H4M18 7h-3v5.5a2.5 2.5 0 01-2.5 2.5 2.5 2.5 0 01-2.5-2.5 2.5 2.5 0 012.5-2.5c.57 0 1.08.19 1.5.5V5h4m2-3H8a2 2 0 00-2 2v12a2 2 0 002 2h12a2 2 0 002-2V4a2 2 0 00-2-2z"/></symbol><symbol viewBox="0 0 24 24" id="pause" xmlns="http://www.w3.org/2000/svg"><path d="M14 19h4V5h-4M6 19h4V5H6v14z"/></symbol><symbol viewBox="0 0 24 24" id="play" xmlns="http://www.w3.org/2000/svg"><path d="M8 5.14v14l11-7-11-7z"/></symbol><symbol viewBox="0 0 24 24" id="skip-next" xmlns="http://www.w3.org/2000/svg"><path d="M16 18h2V6h-2M6 18l8.5-6L6 6v12z"/></symbol><symbol viewBox="0 0 24 24" id="skip-previous" xmlns="http://www.w3.org/2000/svg"><path d="M6 18V6h2v12H6m3.5-6L18 6v12l-8.5-6z"/></symbol><symbol viewBox="0 0 24 24" id="thumb-down-outline" xmlns="http://www.w3.org/2000/svg"><path d="M19 15V3h4v12h-4M15 3a2 2 0 012 2v10c0 .55-.22 1.05-.59 1.41L9.83 23l-1.06-1.06c-.27-.27-.44-.64-.44-1.06l.03-.31.95-4.57H3a2 2 0 01-2-2v-2c0-.26.05-.5.14-.73l3.02-7.05C4.46 3.5 5.17 3 6 3h9m0 2H5.97L3 12v2h8.78l-1.13 5.32L15 14.97V5z"/></symbol><symbol viewBox="0 0 24 24" id="thumb-up-outline" xmlns="http://www.w3.org/2000/svg"><path d="M5 9v12H1V9h4m4 12a2 2 0 01-2-2V9c0-.55.22-1.05.59-1.41L14.17 1l1.06 1.06c.27.27.44.64.44 1.05l-.03.32L14.69 8H21a2 2 0 012 2v2c0 .26-.05.5-.14.73l-3.02 7.05C19.54 20.5 18.83 21 18 21H9m0-2h9.03L21 12v-2h-8.79l1.13-5.32L9 9.03V19z"/></symbol></svg>